<svg width="356" height="351" viewBox="0 0 356 351" fill="none" xmlns="http://www.w3.org/2000/svg">
<g clip-path="url(#clip0_101_2)">
<path d="M68.87 90.7C68.217 90.2202 67.5926 89.7027 67 89.15C65.71 87.86 64.48 86.5 63.15 85.09L54.9 93.35C46.4333 101.783 37.9667 110.233 29.5 118.7C29.0981 119.165 28.6034 119.54 28.0476 119.802C27.4919 120.064 26.8874 120.206 26.2733 120.221C25.6591 120.235 25.0487 120.12 24.4815 119.884C23.9143 119.648 23.4028 119.296 22.98 118.85C17.57 113.5 12.37 108 8.27 101.51C1.22 90.42 -1.12 78.3 0.479996 65.35C1.2449 59.3508 2.99511 53.519 5.66 48.09C5.83639 47.817 5.91734 47.4933 5.8902 47.1694C5.86306 46.8456 5.72936 46.5398 5.51 46.3C-1.75 36.56 2.51 22.47 13.91 18.77C19.65 16.9 25.05 17.94 30.01 21.27C30.3097 21.5172 30.6797 21.6637 31.0674 21.6889C31.4551 21.714 31.8409 21.6164 32.17 21.41C42.9704 16.1274 55.2023 14.5225 67 16.84C73.2039 17.8866 79.1446 20.1317 84.49 23.45C87.6273 25.4855 90.6332 27.7166 93.49 30.13C96.61 32.74 99.49 35.67 102.49 38.36C104.81 40.36 104.74 43.57 102.49 45.79C91.62 56.51 80.86 67.35 70.06 78.15C69.84 78.37 69.64 78.61 69.42 78.85L75.32 84.63C100.54 62.34 130.05 49.57 163.66 45.91C163.66 45.58 163.73 45.23 163.73 44.91C163.73 39.91 163.73 34.99 163.81 30.03C163.81 29.16 163.37 29.03 162.68 29.03C155.75 29.37 150 25.5 148 18.9C147.123 16.3631 146.998 13.6266 147.64 11.0203C148.282 8.41391 149.664 6.04885 151.62 4.21C154.083 1.85994 157.336 0.515326 160.74 0.44C165.65 0.14 170.57 0.14 175.48 0.08C181.08 0.01 186.68 0.08 192.27 0C196.43 0 200.34 0.7 203.51 3.62C208.08 7.83 209.74 13 207.9 19C206.06 25 201.57 28 195.59 29C194.54 29.18 193.46 29.21 192.26 29.31C192.26 29.77 192.2 30.23 192.2 30.7C192.2 35.29 192.2 39.89 192.2 44.49C192.2 45.57 192.49 45.9 193.56 46C205.429 47.1093 217.116 49.6718 228.36 53.63C247.388 60.3169 264.885 70.7451 279.82 84.3L280.56 84.97L283.56 82.05L286.67 79.05C286.28 78.64 285.97 78.3 285.67 77.98L253.08 45.42C252.595 45.0088 252.206 44.4971 251.939 43.9203C251.672 43.3436 251.534 42.7156 251.534 42.08C251.534 41.4444 251.672 40.8164 251.939 40.2397C252.206 39.6629 252.595 39.1512 253.08 38.74C258.73 33.06 264.56 27.61 271.47 23.43C280.122 18.218 290.094 15.6105 300.19 15.92C308.362 16.0815 316.402 18.0197 323.75 21.6C324.05 21.774 324.398 21.8484 324.743 21.8124C325.088 21.7765 325.412 21.6321 325.67 21.4C333.98 15.4 345.19 17.22 350.83 25.4C352.905 28.4685 353.988 32.1 353.932 35.8038C353.877 39.5075 352.686 43.105 350.52 46.11C350.291 46.3688 350.152 46.6952 350.125 47.0399C350.098 47.3845 350.184 47.7286 350.37 48.02C356.94 61.78 357.66 75.93 353.02 90.36C350.56 98.03 346.18 104.59 340.83 110.53C338.45 113.18 335.97 115.73 333.5 118.29C331.03 120.85 328.55 120.86 326.03 118.35L313.38 105.72L293.31 85.65C293.2 85.54 293.08 85.45 293 85.38L287.19 91.27C314.43 120.36 329.73 154.76 330.64 194.92C331.55 235.08 317.83 270.08 291.25 300.24C293.25 302.48 295.25 304.74 297.25 306.98C300.53 310.59 303.91 314.12 307.07 317.83C308.598 319.568 309.87 321.514 310.85 323.61C313.29 329.2 311.3 335.61 306.26 339.41C303.868 341.273 300.906 342.254 297.874 342.187C294.843 342.119 291.927 341.008 289.62 339.04C287.403 337.027 285.318 334.873 283.38 332.59C281.44 330.47 279.62 328.24 277.71 326.08C275.57 323.66 273.39 321.27 271.17 318.81C243.61 339.81 212.62 350.81 177.94 350.61C143.26 350.41 112.4 339.5 84.7 318.79C82.4 321.34 80.15 323.87 77.87 326.38C74.24 330.38 70.78 334.53 66.87 338.29C64.95 340.257 62.4534 341.562 59.742 342.015C57.0306 342.468 54.2453 342.046 51.79 340.81C49.9734 339.953 48.3686 338.705 47.0904 337.156C45.8122 335.607 44.8923 333.794 44.3964 331.848C43.9005 329.901 43.8408 327.869 44.2218 325.897C44.6027 323.925 45.4148 322.062 46.6 320.44C48.8495 317.537 51.2634 314.766 53.83 312.14C57.36 308.22 60.92 304.33 64.48 300.42C37.78 270.23 24.54 235.07 25.48 194.9C26.42 154.73 41 120.16 68.87 90.7ZM34.34 197.56C34.14 278.81 99.04 341.94 179.76 341.56C260.48 341.18 322.35 273.79 321.82 196.17C321.29 119.07 256.4 52.89 176.58 54.05C101.14 55.18 34.43 115.12 34.34 197.56ZM329.6 109.36C343.8 95.85 350.76 80.17 345.05 59.88C339.7 40.88 326.93 28.98 307.29 25.53C289.35 22.37 274.61 28.86 262.48 42.19L329.6 109.36ZM93.31 42.08C80.31 28.19 64.67 21.53 45.65 26.29C26.63 31.05 14.27 43.07 10.06 62.29C6 81 12.22 96.57 26.17 109.24L93.31 42.08ZM177.83 8.87V9H168.35C166.12 9 163.88 8.9 161.64 9C160.684 9.01833 159.749 9.28611 158.928 9.77683C158.107 10.2675 157.429 10.9642 156.96 11.7977C156.491 12.6313 156.248 13.5728 156.255 14.5292C156.262 15.4855 156.519 16.4234 157 17.25C158.31 19.76 160.58 20.35 163.16 20.32C167.23 20.32 171.29 20.25 175.36 20.24H193.47C194.985 20.325 196.473 19.8086 197.609 18.8031C198.746 17.7976 199.44 16.3842 199.54 14.87C199.73 11.49 197.7 9.31 194.03 8.97C193.35 8.91 192.67 8.87 192.03 8.87H177.83ZM278.12 313.11C279.58 314.73 280.96 316.23 282.3 317.76C285.85 321.82 289.3 325.96 292.98 329.91C294.255 331.166 295.745 332.182 297.38 332.91C298.93 333.66 300.44 333.03 301.64 331.84C302.225 331.377 302.646 330.739 302.844 330.02C303.042 329.301 303.005 328.537 302.74 327.84C302.094 326.175 301.201 324.618 300.09 323.22C295.75 318.31 291.25 313.55 286.81 308.73C286.22 308.09 285.64 307.44 285.02 306.73C282.69 308.88 280.45 311 278.12 313.11ZM70.86 306.88C65.86 312.23 60.96 317.45 56.15 322.78C55.0037 324.105 54.057 325.591 53.34 327.19C52.9219 327.989 52.7999 328.91 52.9958 329.791C53.1916 330.671 53.6926 331.454 54.41 332C55.0178 332.652 55.8307 333.076 56.7131 333.202C57.5956 333.327 58.4944 333.147 59.26 332.69C60.539 332.038 61.7041 331.184 62.71 330.16C66.62 325.85 70.42 321.43 74.27 317.05C75.4 315.77 76.54 314.51 77.71 313.2L70.86 306.88ZM172.71 29.25V45.25C176.09 45.25 179.36 45.25 182.63 45.25C182.84 45.25 183.22 44.61 183.22 44.25C183.22 39.73 183.22 35.25 183.22 30.7V29.25H172.71ZM22.44 27.19C18.19 26.19 14.96 27.61 12.52 30.8C10.79 33.07 10 35.64 11.27 38.54C13.09 36.54 14.78 34.54 16.6 32.67C18.42 30.8 20.4 29.09 22.44 27.19ZM344.71 38.19C345.88 35.46 344.71 31.6 341.96 29.19C339.21 26.78 335.56 26.13 333.74 27.27C337.37 30.88 341 34.52 344.71 38.17V38.19Z" fill="#2A7C6F"/>
<path d="M177 329.33C105.2 328.11 45.57 271.16 46.69 196.56C47.81 121.07 108.69 64.28 183.3 66.66C254.54 68.93 309.89 129.3 309.38 199.16C308.86 273.22 246.78 330.48 177 329.33ZM300.51 198.86C301.25 132.46 246.58 75.44 178.76 75.39C113.11 75.33 55.83 126.74 55.63 197.31C55.42 268.52 111.74 319 176 320.29C247.05 321.74 299.64 263.79 300.51 198.86Z" fill="#2A7C6F"/>
<path d="M178 211.22C175.849 211.207 173.734 210.672 171.835 209.661C169.936 208.65 168.311 207.194 167.1 205.417C165.888 203.64 165.126 201.595 164.879 199.458C164.631 197.322 164.906 195.157 165.68 193.15C165.832 192.903 165.891 192.61 165.845 192.324C165.799 192.037 165.652 191.777 165.43 191.59C161.9 188.05 158.43 184.45 154.93 180.9C143.597 169.493 132.263 158.09 120.93 146.69C113.53 139.23 106.18 131.69 98.75 124.28C98.1643 123.759 97.7235 123.096 97.4703 122.354C97.2171 121.612 97.1602 120.818 97.3052 120.048C97.4502 119.277 97.7921 118.558 98.2976 117.959C98.8031 117.36 99.4551 116.902 100.19 116.63C101.007 116.276 101.916 116.197 102.782 116.404C103.647 116.612 104.422 117.094 104.99 117.78C111.83 124.733 118.677 131.68 125.53 138.62C131.23 144.387 136.943 150.15 142.67 155.91C148.397 161.67 154.1 167.443 159.78 173.23C163.74 177.23 167.697 181.23 171.65 185.23C171.812 185.472 172.057 185.647 172.339 185.721C172.621 185.795 172.92 185.762 173.18 185.63C174.616 185.005 176.161 184.672 177.727 184.65C179.293 184.628 180.847 184.917 182.3 185.5C183.3 185.9 183.79 185.5 184.41 184.89C192.857 176.27 201.31 167.653 209.77 159.04C217.257 151.473 224.733 143.907 232.2 136.34C234.2 134.34 236.64 134.29 238.55 136.17C240.46 138.05 240.55 140.57 238.5 142.64C229.773 151.547 221.033 160.443 212.28 169.33C205.14 176.6 198.02 183.9 190.84 191.13C190.439 191.436 190.162 191.877 190.059 192.371C189.956 192.865 190.035 193.379 190.28 193.82C193.18 200.29 188.16 209.18 181.19 210.7C180.14 210.93 179.07 211.05 178 211.22ZM177.89 193.8C177.332 193.767 176.773 193.848 176.247 194.037C175.721 194.227 175.239 194.521 174.83 194.902C174.421 195.284 174.094 195.744 173.868 196.255C173.643 196.767 173.523 197.319 173.517 197.878C173.511 198.437 173.618 198.991 173.833 199.507C174.047 200.024 174.365 200.491 174.765 200.881C175.165 201.271 175.641 201.576 176.163 201.777C176.684 201.978 177.241 202.071 177.8 202.05C178.358 202.083 178.917 202.002 179.443 201.813C179.969 201.623 180.451 201.329 180.86 200.948C181.269 200.566 181.596 200.106 181.822 199.595C182.047 199.083 182.167 198.531 182.173 197.972C182.179 197.413 182.071 196.859 181.857 196.343C181.643 195.826 181.325 195.359 180.925 194.969C180.525 194.579 180.049 194.274 179.527 194.073C179.006 193.872 178.449 193.779 177.89 193.8V193.8Z" fill="#2A7C6F"/>
<path d="M274.63 202.4C272.03 202.4 269.44 202.4 266.84 202.4C265.978 202.451 265.122 202.221 264.401 201.745C263.68 201.27 263.132 200.573 262.84 199.76C262.439 198.922 262.319 197.976 262.5 197.064C262.68 196.152 263.15 195.323 263.84 194.7C264.682 193.984 265.736 193.562 266.84 193.5C272.15 193.39 277.46 193.43 282.77 193.5C283.341 193.474 283.91 193.565 284.444 193.769C284.978 193.972 285.464 194.284 285.872 194.683C286.28 195.083 286.601 195.563 286.816 196.092C287.031 196.621 287.134 197.189 287.12 197.76C287.2 200.44 285.65 202.3 283.06 202.4C280.27 202.51 277.47 202.4 274.68 202.4H274.63Z" fill="#2A7C6F"/>
<path d="M81.07 193.44C83.66 193.44 86.26 193.44 88.85 193.44C93.31 193.44 94.23 197.82 92.85 200.29C92.4517 200.985 91.8645 201.553 91.1566 201.929C90.4487 202.304 89.6489 202.471 88.85 202.41C85.66 202.41 82.46 202.41 79.27 202.41H73.27C69.27 202.41 68.11 198.57 69.21 195.98C69.5208 195.188 70.0763 194.515 70.7957 194.06C71.515 193.605 72.3608 193.391 73.21 193.45C75.79 193.42 78.43 193.44 81.07 193.44Z" fill="#2A7C6F"/>
<path d="M105.42 152.6C105.42 156.22 102.26 159.45 98.57 157.28C94.13 154.67 89.65 152.14 85.2 149.54C82.66 148.06 82.02 145.66 83.47 143.24C84.92 140.82 87.33 140.41 89.81 141.85C94.2633 144.43 98.72 147.01 103.18 149.59C103.775 149.864 104.292 150.284 104.684 150.81C105.075 151.335 105.328 151.951 105.42 152.6Z" fill="#2A7C6F"/>
<path d="M125.78 102.76C126.504 102.711 127.226 102.874 127.858 103.23C128.49 103.585 129.005 104.117 129.34 104.76C132.07 109.45 134.8 114.14 137.46 118.87C137.746 119.379 137.924 119.941 137.983 120.522C138.042 121.102 137.98 121.689 137.802 122.245C137.623 122.8 137.332 123.313 136.946 123.751C136.561 124.189 136.089 124.543 135.56 124.79C135.076 125.095 134.534 125.296 133.968 125.382C133.403 125.468 132.826 125.436 132.273 125.289C131.72 125.142 131.204 124.882 130.756 124.526C130.308 124.17 129.938 123.725 129.67 123.22C127.04 118.7 124.48 114.13 121.79 109.65C121.354 108.956 121.116 108.157 121.101 107.337C121.087 106.518 121.296 105.71 121.706 105.001C122.117 104.292 122.713 103.709 123.431 103.314C124.149 102.919 124.961 102.727 125.78 102.76V102.76Z" fill="#2A7C6F"/>
<path d="M133 270.42C136.84 270.42 139.07 274.08 137.31 277.17C134.71 281.757 132.077 286.323 129.41 290.87C128.958 291.775 128.186 292.481 127.244 292.85C126.302 293.219 125.257 293.226 124.31 292.87C123.321 292.591 122.457 291.984 121.86 291.147C121.264 290.311 120.971 289.296 121.03 288.27C121.1 287.639 121.301 287.029 121.62 286.48C124.27 281.82 126.96 277.2 129.62 272.56C129.951 271.942 130.437 271.421 131.029 271.046C131.621 270.671 132.3 270.456 133 270.42V270.42Z" fill="#2A7C6F"/>
<path d="M268.61 255C267.819 254.765 267.047 254.471 266.3 254.12C261.753 251.54 257.22 248.933 252.7 246.3C251.705 245.696 250.985 244.729 250.69 243.604C250.396 242.478 250.551 241.282 251.122 240.269C251.694 239.256 252.637 238.505 253.753 238.174C254.869 237.844 256.069 237.961 257.1 238.5C261.767 241.167 266.433 243.863 271.1 246.59C271.912 247.039 272.542 247.757 272.884 248.62C273.225 249.482 273.255 250.437 272.97 251.32C272.72 252.313 272.165 253.202 271.382 253.862C270.6 254.522 269.63 254.92 268.61 255V255Z" fill="#2A7C6F"/>
<path d="M273.16 146C273.15 146.634 272.977 147.254 272.656 147.801C272.335 148.348 271.878 148.802 271.33 149.12C266.52 151.95 261.7 154.79 256.81 157.5C254.68 158.69 252.27 157.75 251.03 155.5C250.738 155.019 250.547 154.484 250.466 153.927C250.386 153.37 250.418 152.802 250.562 152.258C250.706 151.714 250.958 151.204 251.303 150.76C251.648 150.315 252.079 149.944 252.57 149.67C257.237 146.95 261.903 144.26 266.57 141.6C269.59 139.92 273.18 142.25 273.16 146Z" fill="#2A7C6F"/>
<path d="M235 288.67C234.891 289.667 234.485 290.609 233.834 291.372C233.183 292.135 232.318 292.685 231.35 292.95C230.448 293.254 229.468 293.227 228.584 292.873C227.701 292.52 226.973 291.862 226.53 291.02C223.863 286.433 221.197 281.837 218.53 277.23C218.207 276.732 217.991 276.173 217.897 275.587C217.803 275.001 217.833 274.402 217.985 273.828C218.137 273.254 218.407 272.719 218.778 272.256C219.149 271.793 219.613 271.413 220.14 271.14C220.626 270.801 221.18 270.57 221.763 270.463C222.346 270.356 222.946 270.375 223.521 270.519C224.096 270.663 224.634 270.929 225.097 271.298C225.561 271.667 225.941 272.132 226.21 272.66C228.877 277.207 231.51 281.773 234.11 286.36C234.472 287.103 234.77 287.876 235 288.67V288.67Z" fill="#2A7C6F"/>
<path d="M235 107.21C234.817 107.934 234.569 108.64 234.26 109.32C231.6 114 228.91 118.68 226.18 123.32C225.903 123.822 225.524 124.262 225.068 124.61C224.613 124.959 224.089 125.208 223.532 125.344C222.974 125.479 222.394 125.497 221.829 125.397C221.265 125.296 220.727 125.079 220.25 124.76C219.742 124.513 219.29 124.167 218.92 123.74C218.55 123.314 218.27 122.817 218.097 122.28C217.924 121.743 217.862 121.176 217.914 120.614C217.966 120.052 218.131 119.506 218.4 119.01C219.87 116.31 221.5 113.71 223.04 111.01C224.24 108.94 225.35 106.82 226.58 104.77C227.81 102.72 229.45 102.29 231.76 102.98C232.644 103.308 233.417 103.879 233.99 104.627C234.564 105.376 234.914 106.271 235 107.21V107.21Z" fill="#2A7C6F"/>
<path d="M87.24 255C86.2656 254.904 85.3419 254.519 84.5868 253.896C83.8317 253.273 83.2793 252.439 83 251.5C82.6621 250.61 82.6526 249.629 82.9734 248.732C83.2942 247.836 83.9241 247.084 84.75 246.61C87.42 245 90.13 243.48 92.83 241.94C94.83 240.77 96.9 239.6 98.98 238.5C99.4653 238.198 100.009 238.001 100.575 237.923C101.142 237.844 101.718 237.886 102.267 238.046C102.816 238.205 103.326 238.479 103.762 238.848C104.198 239.217 104.552 239.675 104.8 240.19C105.125 240.686 105.342 241.244 105.438 241.829C105.533 242.414 105.504 243.013 105.353 243.586C105.203 244.159 104.933 244.695 104.562 245.157C104.191 245.619 103.727 245.999 103.2 246.27C98.6533 248.937 94.0867 251.567 89.5 254.16C88.7711 254.502 88.0152 254.783 87.24 255V255Z" fill="#2A7C6F"/>
<path d="M173.52 294.68C173.52 292.09 173.52 289.49 173.52 286.89C173.528 285.754 173.971 284.664 174.759 283.846C175.547 283.028 176.62 282.544 177.755 282.494C178.89 282.444 180 282.832 180.857 283.577C181.715 284.323 182.252 285.369 182.36 286.5C182.48 292.007 182.48 297.523 182.36 303.05C182.31 305.63 180.27 307.21 177.67 307.05C177.107 307.051 176.55 306.937 176.032 306.715C175.514 306.494 175.047 306.169 174.659 305.761C174.27 305.353 173.969 304.871 173.774 304.343C173.578 303.815 173.492 303.252 173.52 302.69C173.5 300 173.52 297.36 173.52 294.68Z" fill="#2A7C6F"/>
<path d="M173.51 101C173.51 98.4 173.51 95.81 173.51 93.22C173.474 92.6488 173.557 92.0764 173.752 91.5386C173.948 91.0008 174.252 90.509 174.646 90.0942C175.04 89.6793 175.516 89.3503 176.043 89.1276C176.57 88.9049 177.138 88.7934 177.71 88.8C178.278 88.7395 178.852 88.7949 179.398 88.9628C179.944 89.1308 180.45 89.4078 180.886 89.7771C181.322 90.1464 181.678 90.6003 181.933 91.1113C182.188 91.6224 182.337 92.1798 182.37 92.75C182.5 94.22 182.44 95.75 182.45 97.18C182.45 101.05 182.5 104.93 182.45 108.8C182.39 112.26 179.82 114.14 176.55 113.23C175.633 112.997 174.828 112.446 174.279 111.675C173.729 110.904 173.471 109.963 173.55 109.02C173.55 106.35 173.55 103.67 173.55 101.02L173.51 101Z" fill="#2A7C6F"/>
</g>
<defs>
<clipPath id="clip0_101_2">
<rect width="355.99" height="350.61" fill="white"/>
</clipPath>
</defs>
</svg>
